<?xml version="1.0" encoding="utf-8"?>
<!-- Generator: Adobe Illustrator 23.0.3, SVG Export Plug-In . SVG Version: 6.00 Build 0)  -->
<svg version="1.1" id="Layer_1" xmlns="http://www.w3.org/2000/svg" xmlns:xlink="http://www.w3.org/1999/xlink" x="0px" y="0px"
	 viewBox="0 0 740 940" style="enable-background:new 0 0 740 940;" xml:space="preserve">
<style type="text/css">
	.st0{fill:url(#SVGID_1_);}
	.st1{fill:#42E8E0;}
	.st2{fill:url(#SVGID_2_);}
	.st3{fill:#2FD3C7;}
	.st4{fill:url(#SVGID_3_);}
	.st5{fill:url(#SVGID_4_);}
	.st6{fill:#39477C;}
	.st7{fill:#BCBEFF;}
	.st8{fill:url(#SVGID_5_);}
	.st9{fill:#009EA2;}
	.st10{fill:url(#SVGID_6_);}
	.st11{fill:url(#SVGID_7_);}
	.st12{fill:#FFFFFF;}
	.st13{opacity:0.4;fill:url(#SVGID_8_);enable-background:new    ;}
	.st14{opacity:0.8;fill:url(#SVGID_9_);enable-background:new    ;}
	.st15{fill:url(#SVGID_10_);}
	.st16{fill:url(#SVGID_11_);}
	.st17{fill:url(#SVGID_12_);}
	.st18{fill:url(#SVGID_13_);}
	.st19{opacity:0.3;fill:#0F054C;enable-background:new    ;}
	.st20{fill:url(#SVGID_14_);}
	.st21{opacity:0.3;}
	.st22{fill:#0F3163;}
	.st23{opacity:0.4;fill:#42E8E0;enable-background:new    ;}
	.st24{fill:url(#SVGID_15_);}
	.st25{fill:url(#SVGID_16_);}
	.st26{fill:url(#SVGID_17_);}
	.st27{fill:#5351AF;}
	.st28{fill:url(#SVGID_18_);}
	.st29{fill:url(#SVGID_19_);}
	.st30{fill:url(#SVGID_20_);}
	.st31{fill:url(#SVGID_21_);}
	.st32{fill:url(#SVGID_22_);}
	.st33{fill:#99FCF7;}
</style>
<radialGradient id="SVGID_1_" cx="375.7298" cy="-506.2269" r="92.7345" gradientTransform="matrix(1 0 0 1 0 1140)" gradientUnits="userSpaceOnUse">
	<stop  offset="0" style="stop-color:#3AB6D2"/>
	<stop  offset="1.890000e-02" style="stop-color:#39B0D0"/>
	<stop  offset="0.1245" style="stop-color:#3490C7"/>
	<stop  offset="0.2399" style="stop-color:#3177C0"/>
	<stop  offset="0.3671" style="stop-color:#2E63BA"/>
	<stop  offset="0.5122" style="stop-color:#2C55B6"/>
	<stop  offset="0.6906" style="stop-color:#2A4CB4"/>
	<stop  offset="1" style="stop-color:#2A4AB3"/>
</radialGradient>
<ellipse class="st0" cx="375.5" cy="595.4" rx="74.1" ry="42.8"/>
<path class="st1" d="M323.1,574.2c28.9-16.7,75.9-16.7,104.8,0c12.5,7.2,19.5,16.3,21.3,25.7c2.3-12.4-4.8-25.3-21.3-34.8
	c-28.9-16.7-75.9-16.7-104.8,0c-16.5,9.5-23.6,22.4-21.3,34.8C303.5,590.5,310.6,581.4,323.1,574.2z"/>
<radialGradient id="SVGID_2_" cx="-2496.5732" cy="-714.167" r="52.8379" fx="-2496.4937" fy="-710.729" gradientTransform="matrix(-0.5036 0.7671 -1.2637 -0.8297 -1881.1726 1764.2247)" gradientUnits="userSpaceOnUse">
	<stop  offset="0" style="stop-color:#9CC7F6"/>
	<stop  offset="0.1421" style="stop-color:#95C0F2"/>
	<stop  offset="0.3526" style="stop-color:#83ACE7"/>
	<stop  offset="0.6054" style="stop-color:#658BD6"/>
	<stop  offset="0.8887" style="stop-color:#3C5EBE"/>
	<stop  offset="1" style="stop-color:#2A4AB3"/>
</radialGradient>
<path class="st2" d="M234.1,427c-10.9-7.2-27.8-28.4-22.1-37.2c5.7-8.7,31.9-1.7,42.9,5.5c10.9,7.2,15.2,20.1,9.4,28.8
	C258.5,432.9,245,434.2,234.1,427z"/>
<path class="st3" d="M297.7,452.7c-1,0-2-0.3-2.9-0.9L256,425.5c-2.3-1.6-3-4.8-1.4-7.1c1.6-2.3,4.8-3,7.1-1.4l38.9,26.3
	c2.3,1.6,3,4.8,1.4,7.1C301,451.9,299.3,452.7,297.7,452.7z"/>
<path class="st3" d="M484,570.7c-2,0-3.9-1.2-4.8-3.2L451,497.9c-1.1-2.6,0.2-5.6,2.8-6.7c2.6-1.1,5.6,0.2,6.7,2.8l28.2,69.6
	c1.1,2.6-0.2,5.6-2.8,6.7C485.3,570.6,484.6,570.7,484,570.7z"/>
<g>
	<g>
		
			<radialGradient id="SVGID_3_" cx="-198.8324" cy="-917.043" r="157.8087" gradientTransform="matrix(0.981 0.1942 -0.1942 0.981 457.4799 1303.5521)" gradientUnits="userSpaceOnUse">
			<stop  offset="0" style="stop-color:#BBCFF6"/>
			<stop  offset="1" style="stop-color:#2A4AB3"/>
		</radialGradient>
		<circle class="st4" cx="309.8" cy="452.7" r="27.3"/>
	</g>
</g>
<g>
	<g>
		
			<radialGradient id="SVGID_4_" cx="750.7639" cy="-485.6552" r="155.903" gradientTransform="matrix(0.7781 0 0 1.0592 -167.0174 1002.3159)" gradientUnits="userSpaceOnUse">
			<stop  offset="0" style="stop-color:#BBCFF6"/>
			<stop  offset="1" style="stop-color:#2A4AB3"/>
		</radialGradient>
		<path class="st5" d="M446.1,502.3c0,53.1-31.6,96.1-70.6,96.1s-70.6-43-70.6-96.1s31.6-69,70.6-69S446.1,449.2,446.1,502.3z"/>
	</g>
</g>
<ellipse class="st6" cx="375.5" cy="461.9" rx="48.2" ry="27.8"/>
<path class="st1" d="M341.4,449.6c18.8-10.9,49.3-10.9,68.1,0c7.8,4.5,12.3,10.1,13.7,16c1.9-8.3-2.6-17-13.7-23.4
	c-18.8-10.9-49.3-10.9-68.1,0c-11,6.4-15.6,15.1-13.7,23.4C329.1,459.7,333.7,454.1,341.4,449.6z"/>
<path class="st7" d="M354.5,359.1c0,13-9.1,28.7-20.3,35.2s-20.3,1.2-20.3-11.7c0-13,9.1-28.7,20.3-35.2S354.5,346.1,354.5,359.1z"
	/>
<g>
	<g>
		
			<radialGradient id="SVGID_5_" cx="423.2318" cy="-755.183" r="121.68" gradientTransform="matrix(1 0 0 1 0 1140)" gradientUnits="userSpaceOnUse">
			<stop  offset="0" style="stop-color:#BBCFF6"/>
			<stop  offset="0.1679" style="stop-color:#A9BEEE"/>
			<stop  offset="0.5059" style="stop-color:#7993D8"/>
			<stop  offset="0.9792" style="stop-color:#2D4DB5"/>
			<stop  offset="1" style="stop-color:#2A4AB3"/>
		</radialGradient>
		<circle class="st8" cx="378.3" cy="395.5" r="72"/>
	</g>
</g>
<g>
	<path class="st6" d="M355.8,429.6c-1.8,14.2-12.5,18.6-23.9,9.9c-11.3-8.7-19-27.2-17.2-41.3c1.8-14.2,12.5-18.6,23.9-9.9
		C350,396.9,357.7,415.4,355.8,429.6z"/>
	<path class="st1" d="M346.5,417.3c-0.7,5.1-4.5,6.8-8.7,3.6c-4.1-3.1-6.9-9.9-6.2-15c0.7-5.1,4.5-6.8,8.7-3.6
		C344.4,405.5,347.1,412.2,346.5,417.3z"/>
	<path class="st9" d="M337.4,437.5c-11.3-8.7-19-27.2-17.2-41.3c0.8-5.8,3-9.9,6.1-12.2c-5.9,0.6-10.4,5.6-11.5,14.3
		c-1.8,14.2,5.9,32.7,17.2,41.3c6.7,5.1,13.2,5.7,17.8,2.3C346,442.2,341.8,440.8,337.4,437.5z"/>
	<path class="st1" d="M333,439c-11.3-8.7-19-27.2-17.2-41.3c0.9-6.5,3.6-11,7.4-13.1c-4.3,1.8-7.5,6.4-8.4,13.5
		c-1.8,14.2,5.9,32.7,17.2,41.3c6.1,4.7,12,5.5,16.4,3.1C344.1,444.4,338.6,443.4,333,439z"/>
</g>
<g>
	<g>
		
			<radialGradient id="SVGID_6_" cx="-146.0278" cy="-812.5215" r="57.0355" gradientTransform="matrix(0.981 0.1942 -0.1942 0.981 457.4799 1303.5521)" gradientUnits="userSpaceOnUse">
			<stop  offset="0" style="stop-color:#BBCFF6"/>
			<stop  offset="1" style="stop-color:#2A4AB3"/>
		</radialGradient>
		<circle class="st10" cx="455.8" cy="496" r="27.3"/>
	</g>
</g>
<radialGradient id="SVGID_7_" cx="311.2239" cy="-2191.8945" r="52.8412" fx="311.3036" fy="-2188.4565" gradientTransform="matrix(0.9112 0.1087 -0.1791 1.501 -169.6298 3821.0291)" gradientUnits="userSpaceOnUse">
	<stop  offset="0" style="stop-color:#BBCFF6"/>
	<stop  offset="1" style="stop-color:#2A4AB3"/>
</radialGradient>
<path class="st11" d="M499.4,586.5c-1.5,13-13,37.6-23.4,36.4c-10.4-1.2-15.8-27.8-14.2-40.8c1.5-13,11.2-22.5,21.6-21.3
	C493.8,562,501,573.5,499.4,586.5z"/>
<g>
	<polygon class="st1" points="207.9,351.8 143.2,314.4 143.2,389.1 207.9,426.5 272.5,389.1 272.5,314.4 	"/>
	<polygon class="st1" points="207.9,426.5 143.2,389.1 143.2,314.4 207.9,351.8 	"/>
	<polygon class="st3" points="272.5,389.1 207.9,426.5 207.9,351.8 272.5,314.4 	"/>
	<polygon class="st1" points="207.9,351.8 143.2,314.4 207.9,277.1 272.5,314.4 	"/>
	<g>
		<path class="st12" d="M207.9,377.7c-0.1,0-0.2,0-0.2-0.1l-4.4-2.6c-0.2-0.1-0.3-0.4-0.2-0.7c0.1-0.2,0.4-0.3,0.7-0.2l4.2,2.4
			l4.2-2.4c0.2-0.1,0.5-0.1,0.7,0.2c0.1,0.2,0.1,0.5-0.2,0.7l-4.4,2.6C208,377.7,207.9,377.7,207.9,377.7z"/>
		<path class="st12" d="M194.3,369.9c-0.1,0-0.2,0-0.2-0.1l-9.1-5.2c-0.2-0.1-0.3-0.4-0.2-0.7c0.1-0.2,0.4-0.3,0.7-0.2l9.1,5.2
			c0.2,0.1,0.3,0.4,0.2,0.7C194.7,369.8,194.5,369.9,194.3,369.9z M176.2,359.4c-0.1,0-0.2,0-0.2-0.1l-9.1-5.2
			c-0.2-0.1-0.3-0.4-0.2-0.7c0.1-0.2,0.4-0.3,0.7-0.2l9.1,5.2c0.2,0.1,0.3,0.4,0.2,0.7C176.5,359.3,176.4,359.4,176.2,359.4z
			 M158,348.9c-0.1,0-0.2,0-0.2-0.1l-9.1-5.2c-0.2-0.1-0.3-0.4-0.2-0.7c0.1-0.2,0.4-0.3,0.7-0.2l9.1,5.2c0.2,0.1,0.3,0.4,0.2,0.7
			C158.4,348.8,158.2,348.9,158,348.9z M139.9,338.4c-0.1,0-0.2,0-0.2-0.1l-9.1-5.2c-0.2-0.1-0.3-0.4-0.2-0.7
			c0.1-0.2,0.4-0.3,0.7-0.2l9.1,5.2c0.2,0.1,0.3,0.4,0.2,0.7C140.2,338.3,140,338.4,139.9,338.4z M121.7,328c-0.1,0-0.2,0-0.2-0.1
			l-9.1-5.2c-0.2-0.1-0.3-0.4-0.2-0.7c0.1-0.2,0.4-0.3,0.7-0.2l9.1,5.2c0.2,0.1,0.3,0.4,0.2,0.7C122.1,327.9,121.9,328,121.7,328z"
			/>
		<path class="st12" d="M103.6,317.5c-0.1,0-0.2,0-0.2-0.1l-4.4-2.6c-0.2-0.1-0.2-0.2-0.2-0.4s0.1-0.3,0.2-0.4l4.4-2.6
			c0.2-0.1,0.5-0.1,0.7,0.2c0.1,0.2,0.1,0.5-0.2,0.7l-3.7,2.1l3.7,2.1c0.2,0.1,0.3,0.4,0.2,0.7C103.9,317.4,103.7,317.5,103.6,317.5
			z"/>
		<path class="st12" d="M112.6,307.1c-0.2,0-0.3-0.1-0.4-0.2c-0.1-0.2-0.1-0.5,0.2-0.7l9.1-5.2c0.2-0.1,0.5-0.1,0.7,0.2
			c0.1,0.2,0.1,0.5-0.2,0.7l-9.1,5.2C112.8,307.1,112.7,307.1,112.6,307.1z M130.8,296.6c-0.2,0-0.3-0.1-0.4-0.2
			c-0.1-0.2-0.1-0.5,0.2-0.7l9.1-5.2c0.2-0.1,0.5-0.1,0.7,0.2c0.1,0.2,0.1,0.5-0.2,0.7l-9.1,5.2C131,296.6,130.9,296.6,130.8,296.6z
			 M148.9,286.1c-0.2,0-0.3-0.1-0.4-0.2c-0.1-0.2-0.1-0.5,0.2-0.7l9.1-5.2c0.2-0.1,0.5-0.1,0.7,0.2c0.1,0.2,0.1,0.5-0.2,0.7
			l-9.1,5.2C149.1,286.1,149,286.1,148.9,286.1z M167.1,275.7c-0.2,0-0.3-0.1-0.4-0.2c-0.1-0.2-0.1-0.5,0.2-0.7l9.1-5.2
			c0.2-0.1,0.5-0.1,0.7,0.2c0.1,0.2,0.1,0.5-0.2,0.7l-9.1,5.2C167.3,275.6,167.2,275.7,167.1,275.7z M185.3,265.2
			c-0.2,0-0.3-0.1-0.4-0.2c-0.1-0.2-0.1-0.5,0.2-0.7l9.1-5.2c0.2-0.1,0.5-0.1,0.7,0.2c0.1,0.2,0.1,0.5-0.2,0.7l-9.1,5.2
			C185.4,265.1,185.3,265.2,185.3,265.2z"/>
		<path class="st12" d="M212.3,254.7c-0.1,0-0.2,0-0.2-0.1l-4.2-2.4l-4.2,2.4c-0.2,0.1-0.5,0.1-0.7-0.2c-0.1-0.2-0.1-0.5,0.2-0.7
			l4.4-2.6c0.1-0.1,0.3-0.1,0.5,0l4.4,2.6c0.2,0.1,0.3,0.4,0.2,0.7C212.6,254.6,212.4,254.7,212.3,254.7z"/>
		<path class="st12" d="M303.1,307.1c-0.1,0-0.2,0-0.2-0.1l-9.1-5.2c-0.2-0.1-0.3-0.4-0.2-0.7c0.1-0.2,0.4-0.3,0.7-0.2l9.1,5.2
			c0.2,0.1,0.3,0.4,0.2,0.7C303.4,307,303.2,307.1,303.1,307.1z M284.9,296.6c-0.1,0-0.2,0-0.2-0.1l-9.1-5.2
			c-0.2-0.1-0.3-0.4-0.2-0.7c0.1-0.2,0.4-0.3,0.7-0.2l9.1,5.2c0.2,0.1,0.3,0.4,0.2,0.7C285.2,296.5,285.1,296.6,284.9,296.6z
			 M266.8,286.1c-0.1,0-0.2,0-0.2-0.1l-9.1-5.2c-0.2-0.1-0.3-0.4-0.2-0.7c0.1-0.2,0.4-0.3,0.7-0.2l9.1,5.2c0.2,0.1,0.3,0.4,0.2,0.7
			C267.1,286,266.9,286.1,266.8,286.1z M248.6,275.7c-0.1,0-0.2,0-0.2-0.1l-9.1-5.2c-0.2-0.1-0.3-0.4-0.2-0.7
			c0.1-0.2,0.4-0.3,0.7-0.2l9.1,5.2c0.2,0.1,0.3,0.4,0.2,0.7C248.9,275.6,248.8,275.7,248.6,275.7z M230.4,265.2
			c-0.1,0-0.2,0-0.2-0.1l-9.1-5.2c-0.2-0.1-0.3-0.4-0.2-0.7c0.1-0.2,0.4-0.3,0.7-0.2l9.1,5.2c0.2,0.1,0.3,0.4,0.2,0.7
			C230.8,265.1,230.6,265.2,230.4,265.2z"/>
		<path class="st12" d="M312.1,317.5c-0.2,0-0.3-0.1-0.4-0.2c-0.1-0.2,0-0.5,0.2-0.7l3.7-2.1l-3.7-2.1c-0.2-0.1-0.3-0.4-0.2-0.7
			c0.1-0.2,0.4-0.3,0.7-0.2l4.4,2.6c0.1,0.1,0.2,0.2,0.2,0.4s-0.1,0.3-0.2,0.4l-4.4,2.6C312.3,317.5,312.2,317.5,312.1,317.5z"/>
		<path class="st12" d="M221.4,369.9c-0.2,0-0.3-0.1-0.4-0.2c-0.1-0.2-0.1-0.5,0.2-0.7l9.1-5.2c0.2-0.1,0.5-0.1,0.7,0.2
			c0.1,0.2,0.1,0.5-0.2,0.7l-9.1,5.2C221.5,369.9,221.4,369.9,221.4,369.9z M239.5,359.4c-0.2,0-0.3-0.1-0.4-0.2
			c-0.1-0.2-0.1-0.5,0.2-0.7l9.1-5.2c0.2-0.1,0.5-0.1,0.7,0.2c0.1,0.2,0.1,0.5-0.2,0.7l-9.1,5.2
			C239.7,359.4,239.6,359.4,239.5,359.4z M257.7,348.9c-0.2,0-0.3-0.1-0.4-0.2c-0.1-0.2,0-0.5,0.2-0.7l9.1-5.2
			c0.2-0.1,0.5-0.1,0.7,0.2c0.1,0.2,0,0.5-0.2,0.7l-9.1,5.2C257.8,348.9,257.8,348.9,257.7,348.9z M275.8,338.4
			c-0.2,0-0.3-0.1-0.4-0.2c-0.1-0.2,0-0.5,0.2-0.7l9.1-5.2c0.2-0.1,0.5-0.1,0.7,0.2c0.1,0.2,0,0.5-0.2,0.7l-9.1,5.2
			C276,338.4,275.9,338.4,275.8,338.4z M294,328c-0.2,0-0.3-0.1-0.4-0.2c-0.1-0.2,0-0.5,0.2-0.7l9.1-5.2c0.2-0.1,0.5-0.1,0.7,0.2
			c0.1,0.2,0,0.5-0.2,0.7l-9.1,5.2C294.1,327.9,294.1,328,294,328z"/>
	</g>
	<polygon class="st12" points="207.9,351.8 143.2,314.4 143.2,317.6 207.9,355 272.5,317.7 272.5,314.4 	"/>
</g>
<linearGradient id="SVGID_8_" gradientUnits="userSpaceOnUse" x1="380.8" y1="-501.8" x2="380.8" y2="-901.7" gradientTransform="matrix(1 0 0 1 0 1140)">
	<stop  offset="0" style="stop-color:#42E8E0"/>
	<stop  offset="1.420000e-02" style="stop-color:#41E4DF;stop-opacity:0.9858"/>
	<stop  offset="0.6118" style="stop-color:#41E4DF;stop-opacity:0.2758"/>
	<stop  offset="1" style="stop-color:#41E4DF;stop-opacity:0"/>
</linearGradient>
<path class="st13" d="M493.6,238.3H268l33.4,356.2l0,0c-0.3,11.2,6.9,22.5,21.7,31.1c28.9,16.8,75.9,16.8,104.8,0
	c14.5-8.4,21.7-19.4,21.7-30.5l0,0L493.6,238.3z"/>
<polygon class="st6" points="439.1,421.8 413,436.9 413,406.8 439.1,391.7 "/>
<radialGradient id="SVGID_9_" cx="421.1588" cy="-2315.9224" r="48.0134" gradientTransform="matrix(1 0 0 1.2847 0 3338.1685)" gradientUnits="userSpaceOnUse">
	<stop  offset="0" style="stop-color:#2B237C"/>
	<stop  offset="0.31" style="stop-color:#251C72"/>
	<stop  offset="1" style="stop-color:#2B3957"/>
</radialGradient>
<polygon class="st14" points="435.2,393.9 435.2,419.7 413,432.5 413,436.9 439.1,421.8 439.1,391.7 "/>
<g>
	<polygon class="st1" points="418,415 415.6,416.3 415.6,413.6 418,412.3 	"/>
	<polygon class="st1" points="422.9,412.1 420.6,413.5 420.6,410.8 422.9,409.4 	"/>
	<polygon class="st1" points="427.9,409.3 425.5,410.6 425.5,407.9 427.9,406.6 	"/>
	<polygon class="st1" points="427.9,416.3 425.5,417.7 425.5,415 427.9,413.6 	"/>
	<polygon class="st1" points="424.9,421.8 422.6,423.1 422.6,420.4 424.9,419.1 	"/>
	<polygon class="st1" points="433,413.4 430.7,414.7 430.7,412 433,410.7 	"/>
</g>
<path class="st12" d="M446.1,421.7c-0.1,0-0.2,0-0.3-0.1l-2.2-1.4c-0.2-0.1-0.3-0.5-0.1-0.7c0.1-0.2,0.5-0.3,0.7-0.1l2,1.3l6.4-3.5
	c0.2-0.1,0.5,0,0.7,0.2c0.1,0.2,0,0.5-0.2,0.7l-6.7,3.7C446.2,421.7,446.2,421.7,446.1,421.7z M435.3,414.7c-0.1,0-0.2,0-0.3-0.1
	l-8.6-5.6c-0.2-0.1-0.3-0.5-0.1-0.7c0.1-0.2,0.5-0.3,0.7-0.1l8.6,5.6c0.2,0.1,0.3,0.5,0.1,0.7C435.6,414.6,435.5,414.7,435.3,414.7z
	 M461.7,413.1c-0.2,0-0.3-0.1-0.4-0.2c-0.1-0.2,0-0.5,0.2-0.7l9-5c0.2-0.1,0.5,0,0.7,0.2c0.1,0.2,0,0.5-0.2,0.7l-9,5
	C461.9,413.1,461.8,413.1,461.7,413.1z M479.7,403.2c-0.2,0-0.3-0.1-0.4-0.2c-0.1-0.2,0-0.5,0.2-0.7l9-5c0.2-0.1,0.5,0,0.7,0.2
	s0,0.5-0.2,0.7l-9,5C479.8,403.2,479.8,403.2,479.7,403.2z M497.6,393.3c-0.2,0-0.3-0.1-0.4-0.2c-0.1-0.2,0-0.5,0.2-0.7l9-5
	c0.2-0.1,0.5,0,0.7,0.2c0.1,0.2,0,0.5-0.2,0.7l-9,5C497.8,393.3,497.7,393.3,497.6,393.3z M515.6,383.4c-0.2,0-0.3-0.1-0.4-0.2
	c-0.1-0.2,0-0.5,0.2-0.7l3.4-1.9l-4-2.1c-0.2-0.1-0.3-0.4-0.2-0.7s0.4-0.3,0.7-0.2l4.8,2.5c0.2,0.1,0.3,0.2,0.3,0.4
	s-0.1,0.4-0.2,0.4l-4.2,2.3C515.7,383.4,515.7,383.4,515.6,383.4z M506,373.7c-0.1,0-0.2,0-0.2-0.1l-9-4.8c-0.2-0.1-0.3-0.4-0.2-0.7
	c0.1-0.2,0.4-0.3,0.7-0.2l9,4.8c0.2,0.1,0.3,0.4,0.2,0.7C506.3,373.6,506.2,373.7,506,373.7z M487.9,364.1c-0.1,0-0.2,0-0.2-0.1
	l-9-4.8c-0.2-0.1-0.3-0.4-0.2-0.7c0.1-0.2,0.4-0.3,0.7-0.2l9,4.8c0.2,0.1,0.3,0.4,0.2,0.7C488.2,364,488.1,364.1,487.9,364.1z
	 M469.8,354.4c-0.1,0-0.2,0-0.2-0.1l-9-4.8c-0.2-0.1-0.3-0.4-0.2-0.7c0.1-0.2,0.4-0.3,0.7-0.2l9,4.8c0.2,0.1,0.3,0.4,0.2,0.7
	C470.1,354.3,470,354.4,469.8,354.4z M451.7,344.8c-0.1,0-0.2,0-0.2-0.1l-9-4.8c-0.2-0.1-0.3-0.4-0.2-0.7c0.1-0.2,0.4-0.3,0.7-0.2
	l9,4.8c0.2,0.1,0.3,0.4,0.2,0.7C452.1,344.7,451.9,344.8,451.7,344.8z M433.6,335.2c-0.1,0-0.2,0-0.2-0.1l-9-4.8
	c-0.2-0.1-0.3-0.4-0.2-0.7c0.1-0.2,0.4-0.3,0.7-0.2l9,4.8c0.2,0.1,0.3,0.4,0.2,0.7C434,335.1,433.8,335.2,433.6,335.2z M415.5,325.5
	c-0.1,0-0.2,0-0.2-0.1l-9-4.8c-0.2-0.1-0.3-0.4-0.2-0.7c0.1-0.2,0.4-0.3,0.7-0.2l9,4.8c0.2,0.1,0.3,0.4,0.2,0.7
	C415.9,325.4,415.7,325.5,415.5,325.5z M397.5,315.9c-0.1,0-0.2,0-0.2-0.1l-9-4.8c-0.2-0.1-0.3-0.4-0.2-0.7c0.1-0.2,0.4-0.3,0.7-0.2
	l9,4.8c0.2,0.1,0.3,0.4,0.2,0.7C397.8,315.8,397.6,315.9,397.5,315.9z M379.4,306.2c-0.1,0-0.2,0-0.2-0.1l-9-4.8
	c-0.2-0.1-0.3-0.4-0.2-0.7c0.1-0.2,0.4-0.3,0.7-0.2l9,4.8c0.2,0.1,0.3,0.4,0.2,0.7C379.7,306.2,379.5,306.2,379.4,306.2z
	 M361.3,296.6c-0.1,0-0.2,0-0.2-0.1l-9-4.8c-0.2-0.1-0.3-0.4-0.2-0.7c0.1-0.2,0.4-0.3,0.7-0.2l9,4.8c0.2,0.1,0.3,0.4,0.2,0.7
	C361.6,296.5,361.5,296.6,361.3,296.6z M343.2,287c-0.1,0-0.2,0-0.2-0.1l-9-4.8c-0.2-0.1-0.3-0.4-0.2-0.7c0.1-0.2,0.4-0.3,0.7-0.2
	l9,4.8c0.2,0.1,0.3,0.4,0.2,0.7C343.5,286.9,343.4,287,343.2,287z M262.5,282.6c-0.2,0-0.3-0.1-0.4-0.2c-0.1-0.2-0.1-0.5,0.2-0.7
	l8.9-5.1c0.2-0.1,0.5-0.1,0.7,0.2c0.1,0.2,0.1,0.5-0.2,0.7l-8.9,5.1C262.7,282.5,262.6,282.6,262.5,282.6z M325.1,277.3
	c-0.1,0-0.2,0-0.2-0.1l-9-4.8c-0.2-0.1-0.3-0.4-0.2-0.7c0.1-0.2,0.4-0.3,0.7-0.2l9,4.8c0.2,0.1,0.3,0.4,0.2,0.7
	C325.4,277.2,325.3,277.3,325.1,277.3z M280.2,272.3c-0.2,0-0.3-0.1-0.4-0.2c-0.1-0.2-0.1-0.5,0.2-0.7l8.9-5.1
	c0.2-0.1,0.5-0.1,0.7,0.2c0.1,0.2,0.1,0.5-0.2,0.7l-8.9,5.1C280.4,272.2,280.3,272.3,280.2,272.3z M307,267.7c-0.1,0-0.2,0-0.2-0.1
	l-9-4.8c-0.2-0.1-0.3-0.4-0.2-0.7c0.1-0.2,0.4-0.3,0.7-0.2l9,4.8c0.2,0.1,0.3,0.4,0.2,0.7C307.4,267.6,307.2,267.7,307,267.7z"/>
<linearGradient id="SVGID_10_" gradientUnits="userSpaceOnUse" x1="458.922" y1="-712.4692" x2="390.6528" y2="-691.7094" gradientTransform="matrix(1 0 0 1 0 1140)">
	<stop  offset="0" style="stop-color:#97C1FF"/>
	<stop  offset="3.277898e-03" style="stop-color:#96C0FF"/>
	<stop  offset="0.2254" style="stop-color:#7096E4"/>
	<stop  offset="0.4413" style="stop-color:#5175CE"/>
	<stop  offset="0.647" style="stop-color:#3C5DBF"/>
	<stop  offset="0.838" style="stop-color:#2F4FB6"/>
	<stop  offset="1" style="stop-color:#2A4AB3"/>
</linearGradient>
<polygon class="st15" points="460.1,413.9 462.9,408.9 460.1,407.3 434,422.4 434,452.5 436.9,454.1 439.7,449.2 460.1,437.4 "/>
<linearGradient id="SVGID_11_" gradientUnits="userSpaceOnUse" x1="447.0994" y1="-708.1663" x2="353.5513" y2="-697.0214" gradientTransform="matrix(1 0 0 1 0 1140)">
	<stop  offset="0" style="stop-color:#97C1FF"/>
	<stop  offset="3.277898e-03" style="stop-color:#96C0FF"/>
	<stop  offset="0.2254" style="stop-color:#7096E4"/>
	<stop  offset="0.4413" style="stop-color:#5175CE"/>
	<stop  offset="0.647" style="stop-color:#3C5DBF"/>
	<stop  offset="0.838" style="stop-color:#2F4FB6"/>
	<stop  offset="1" style="stop-color:#2A4AB3"/>
</linearGradient>
<polygon class="st16" points="462.9,439 436.9,454.1 436.9,424 462.9,408.9 "/>
<linearGradient id="SVGID_12_" gradientUnits="userSpaceOnUse" x1="430.5445" y1="-697.303" x2="473.8791" y2="-722.3717" gradientTransform="matrix(1 0 0 1 0 1140)">
	<stop  offset="0" style="stop-color:#42E8E0"/>
	<stop  offset="0.1523" style="stop-color:#3CC0D5;stop-opacity:0.8477"/>
	<stop  offset="0.341" style="stop-color:#3696C9;stop-opacity:0.659"/>
	<stop  offset="0.5248" style="stop-color:#3175BF;stop-opacity:0.4752"/>
	<stop  offset="0.6998" style="stop-color:#2D5DB8;stop-opacity:0.3002"/>
	<stop  offset="0.8622" style="stop-color:#2B4FB4;stop-opacity:0.1378"/>
	<stop  offset="1" style="stop-color:#2A4AB3;stop-opacity:0"/>
</linearGradient>
<polygon class="st17" points="462.9,439 436.9,454.1 436.9,424 462.9,408.9 "/>
<g>
	<g>
		
			<linearGradient id="SVGID_13_" gradientUnits="userSpaceOnUse" x1="93.3155" y1="-529.7292" x2="203.6745" y2="-466.0135" gradientTransform="matrix(1 0 0 1 0 1140)">
			<stop  offset="0" style="stop-color:#BCBEFF"/>
			<stop  offset="0.2271" style="stop-color:#AAADF8"/>
			<stop  offset="0.6802" style="stop-color:#7C83E5"/>
			<stop  offset="1" style="stop-color:#5761D7"/>
		</linearGradient>
		<path class="st18" d="M218.6,646.5v-12.1l-3.4-1.9c-0.9,5.7-7.7,9.5-13.3,10.3l-38.3,22.4l-16.7,6l-53.4-27.5l1.2-0.7
			c-4.6-2.1-7-7-9.5-11.5l-3.6,2.1l-2.1,0.6v12.4l0,0c0,2.4,1.6,4.8,4.7,6.6l53.5,30.9c6.3,3.6,16.4,3.6,22.7,0l53.5-30.9
			c3.1-1.8,4.6-4.1,4.7-6.4C218.6,646.7,218.5,646.6,218.6,646.5L218.6,646.5z"/>
		<path class="st19" d="M201.9,642.8l-38.3,22.4l-14.6,5.3v16.4c4.1,0,8.2-0.9,11.4-2.7l53.5-30.9c3.1-1.8,4.6-4.1,4.7-6.4
			c0-0.1,0-0.2,0-0.3l0,0v-12.1l-3.1-1.7h-0.3C214.1,638.3,207.5,642,201.9,642.8z"/>
		<g>
			
				<linearGradient id="SVGID_14_" gradientUnits="userSpaceOnUse" x1="79.375" y1="-505.65" x2="218.525" y2="-505.65" gradientTransform="matrix(1 0 0 1 0 1140)">
				<stop  offset="0" style="stop-color:#E9E9FD"/>
				<stop  offset="0.3601" style="stop-color:#D3D2F9"/>
				<stop  offset="0.7062" style="stop-color:#C5C4F7"/>
				<stop  offset="1" style="stop-color:#C0BFF6"/>
			</linearGradient>
			<path class="st20" d="M137.6,671.8l-53.5-30.9c-6.3-3.6-6.3-9.5,0-13.1l53.5-30.9c6.3-3.6,16.4-3.6,22.7,0l53.5,30.9
				c6.3,3.6,6.3,9.5,0,13.1l-53.5,30.9C154.1,675.4,143.9,675.4,137.6,671.8z"/>
		</g>
		<g class="st21">
			<path class="st22" d="M137.6,671.8l-53.5-30.9c-6.3-3.6-6.3-9.5,0-13.1l53.5-30.9c6.3-3.6,16.4-3.6,22.7,0l53.5,30.9
				c6.3,3.6,6.3,9.5,0,13.1l-53.5,30.9C154.1,675.4,143.9,675.4,137.6,671.8z"/>
		</g>
	</g>
	<g>
		<g>
			<path class="st1" d="M149,632.9c-3.6,0-7.3-0.8-10.1-2.4l-53.5-30.9c-2.8-1.6-4.3-3.8-4.3-6.1s1.5-4.5,4.3-6.1l53.5-30.9
				c5.6-3.2,14.6-3.2,20.2,0l53.5,30.9c2.8,1.6,4.3,3.8,4.3,6.1s-1.5,4.5-4.3,6.1l-53.5,30.9C156.3,632.1,152.6,632.9,149,632.9z
				 M139.4,629.6c5.3,3.1,13.9,3.1,19.2,0l53.5-30.9c2.5-1.4,3.8-3.3,3.8-5.3s-1.4-3.8-3.8-5.3l-53.5-30.9c-5.3-3.1-13.9-3.1-19.2,0
				l-53.5,30.9c-2.5,1.4-3.8,3.3-3.8,5.3s1.4,3.8,3.8,5.3L139.4,629.6z"/>
			<g>
				<path class="st23" d="M218.6,581.6v-18.3l-3.4-1.9c-0.9,5.7-7.7,9.5-13.3,10.3l-38.3,22.4l-16.7,6l-53.4-27.5l1.2-0.7
					c-4.6-2.1-7-7-9.5-11.5l-3.6,2.1l-2.1,0.6v18.6l0,0c0,2.4,1.6,4.8,4.7,6.6l53.5,30.9c6.3,3.6,16.4,3.6,22.7,0l53.5-30.9
					c3.1-1.8,4.6-4.1,4.7-6.4C218.6,581.8,218.5,581.7,218.6,581.6L218.6,581.6z"/>
				<g>
					<g>
						
							<linearGradient id="SVGID_15_" gradientUnits="userSpaceOnUse" x1="93.3156" y1="-610.9293" x2="203.6744" y2="-547.2134" gradientTransform="matrix(1 0 0 1 0 1140)">
							<stop  offset="0" style="stop-color:#529FBF"/>
							<stop  offset="0.2094" style="stop-color:#4E8DB8"/>
							<stop  offset="0.6271" style="stop-color:#435FA4"/>
							<stop  offset="1" style="stop-color:#393091"/>
						</linearGradient>
						<path class="st24" d="M218.6,565.3v-12.1l-3.4-1.9c-0.9,5.7-7.7,9.5-13.3,10.3L163.6,584l-16.7,6l-53.4-27.5l1.2-0.7
							c-4.6-2.1-7-7-9.5-11.5l-3.6,2.1l-2.1,0.6v12.4l0,0c0,2.4,1.6,4.8,4.7,6.6l53.5,30.9c6.3,3.6,16.4,3.6,22.7,0l53.5-30.9
							c3.1-1.8,4.6-4.1,4.7-6.4C218.6,565.5,218.5,565.4,218.6,565.3L218.6,565.3z"/>
						<path class="st19" d="M201.9,561.6L163.6,584l-14.6,5.3v16.4c4.1,0,8.2-0.9,11.4-2.7l53.5-30.9c3.1-1.8,4.6-4.1,4.7-6.4
							c0-0.1,0-0.2,0-0.3l0,0v-12.1l-3.1-1.7h-0.3C214.1,557.2,207.5,560.8,201.9,561.6z"/>
						
							<linearGradient id="SVGID_16_" gradientUnits="userSpaceOnUse" x1="240.661" y1="-556.6736" x2="114.6894" y2="-566.7589" gradientTransform="matrix(1 0 0 1 0 1140)">
							<stop  offset="0" style="stop-color:#42E8E0"/>
							<stop  offset="4.674554e-03" style="stop-color:#42E6DF"/>
							<stop  offset="0.1358" style="stop-color:#40B6CB"/>
							<stop  offset="0.2707" style="stop-color:#3E8DB9"/>
							<stop  offset="0.4074" style="stop-color:#3C6BAA"/>
							<stop  offset="0.5467" style="stop-color:#3B519F"/>
							<stop  offset="0.6893" style="stop-color:#3A3F97"/>
							<stop  offset="0.8375" style="stop-color:#393493"/>
							<stop  offset="1" style="stop-color:#393091"/>
						</linearGradient>
						<path class="st25" d="M201.9,561.6L163.6,584l-14.6,5.3v16.4c4.1,0,8.2-0.9,11.4-2.7l53.5-30.9c3.1-1.8,4.6-4.1,4.7-6.4
							c0-0.1,0-0.2,0-0.3l0,0v-12.1l-3.1-1.7h-0.3C214.1,557.2,207.5,560.8,201.9,561.6z"/>
						<g>
							
								<linearGradient id="SVGID_17_" gradientUnits="userSpaceOnUse" x1="79.375" y1="-586.75" x2="218.525" y2="-586.75" gradientTransform="matrix(1 0 0 1 0 1140)">
								<stop  offset="0" style="stop-color:#B9F6FD"/>
								<stop  offset="0.1332" style="stop-color:#B0EAFB"/>
								<stop  offset="0.4515" style="stop-color:#9ED2F8"/>
								<stop  offset="0.7482" style="stop-color:#94C4F7"/>
								<stop  offset="1" style="stop-color:#90BFF6"/>
							</linearGradient>
							<path class="st26" d="M137.6,590.7l-53.5-30.9c-6.3-3.6-6.3-9.5,0-13.1l53.5-30.9c6.3-3.6,16.4-3.6,22.7,0l53.5,30.9
								c6.3,3.6,6.3,9.5,0,13.1l-53.5,30.9C154.1,594.3,143.9,594.3,137.6,590.7z"/>
						</g>
						<g>
							<path class="st27" d="M149,585c-3.3,0-6.6-0.7-9.1-2.2l-41.8-24.1c-2.5-1.5-3.9-3.4-3.9-5.5s1.4-4.1,3.9-5.5l41.8-24.1
								c5-2.9,13.2-2.9,18.2,0l41.8,24.1c2.5,1.5,3.9,3.4,3.9,5.5s-1.4,4.1-3.9,5.5l-41.8,24.1C155.6,584.3,152.3,585,149,585z
								 M149,522.3c-3.1,0-6.3,0.7-8.6,2.1l-41.8,24.1c-2.2,1.3-3.4,3-3.4,4.7s1.2,3.4,3.4,4.7l41.8,24.1c4.8,2.8,12.5,2.8,17.3,0
								l41.8-24.1c2.2-1.3,3.4-3,3.4-4.7s-1.2-3.4-3.4-4.7l-41.8-24.1C155.2,523,152.1,522.3,149,522.3z"/>
						</g>
						<g>
							<path class="st12" d="M213.9,559.8l-53.5,30.9c-6.3,3.6-16.4,3.6-22.7,0l-53.5-30.9c-2.8-1.6-4.3-3.7-4.6-5.8
								c-0.4,2.6,1.2,5.3,4.6,7.3l53.5,30.9c6.3,3.6,16.4,3.6,22.7,0l53.5-30.9c3.5-2,5-4.7,4.6-7.3
								C218.2,556.1,216.6,558.2,213.9,559.8z"/>
						</g>
					</g>
				</g>
			</g>
		</g>
	</g>
</g>
<g>
	<g>
		
			<linearGradient id="SVGID_18_" gradientUnits="userSpaceOnUse" x1="536.7155" y1="-630.6292" x2="647.1067" y2="-566.8949" gradientTransform="matrix(1 0 0 1 0 1140)">
			<stop  offset="0" style="stop-color:#BCBEFF"/>
			<stop  offset="0.2271" style="stop-color:#AAADF8"/>
			<stop  offset="0.6802" style="stop-color:#7C83E5"/>
			<stop  offset="1" style="stop-color:#5761D7"/>
		</linearGradient>
		<path class="st28" d="M662,545.6v-12.1l-3.3-1.9c-1,5.7-7.7,9.5-13.3,10.3L607,564.3l-16.7,6l-53.4-27.5l1.2-0.7
			c-4.6-2.1-7-7-9.5-11.5l-3.6,2.1l-2.1,0.6v12.4l0,0c0,2.4,1.6,4.8,4.7,6.6l53.5,30.9c6.3,3.6,16.5,3.6,22.7,0l53.5-30.9
			c3.1-1.8,4.7-4.1,4.7-6.4C662,545.8,662,545.7,662,545.6L662,545.6z"/>
		<path class="st19" d="M645.3,541.9L607,564.3l-14.6,5.3V586c4.1,0,8.2-0.9,11.4-2.7l53.5-30.9c3.1-1.8,4.7-4.1,4.7-6.4
			c0-0.1,0-0.2,0-0.3l0,0v-12.1l-3.1-1.7h-0.3C657.6,537.4,650.9,541.1,645.3,541.9z"/>
		<g>
			
				<linearGradient id="SVGID_19_" gradientUnits="userSpaceOnUse" x1="522.875" y1="-606.55" x2="662.025" y2="-606.55" gradientTransform="matrix(1 0 0 1 0 1140)">
				<stop  offset="0" style="stop-color:#E9E9FD"/>
				<stop  offset="0.3601" style="stop-color:#D3D2F9"/>
				<stop  offset="0.7062" style="stop-color:#C5C4F7"/>
				<stop  offset="1" style="stop-color:#C0BFF6"/>
			</linearGradient>
			<path class="st29" d="M581.1,570.9L527.6,540c-6.3-3.6-6.3-9.5,0-13.1l53.5-30.9c6.3-3.6,16.5-3.6,22.7,0l53.5,30.9
				c6.3,3.6,6.3,9.5,0,13.1l-53.5,30.9C597.5,574.5,587.4,574.5,581.1,570.9z"/>
		</g>
		<g class="st21">
			<path class="st22" d="M581.1,570.9L527.6,540c-6.3-3.6-6.3-9.5,0-13.1l53.5-30.9c6.3-3.6,16.5-3.6,22.7,0l53.5,30.9
				c6.3,3.6,6.3,9.5,0,13.1l-53.5,30.9C597.5,574.5,587.4,574.5,581.1,570.9z"/>
		</g>
	</g>
	<g>
		<g>
			<path class="st1" d="M592.5,532c-3.7,0-7.3-0.8-10.1-2.4l-53.5-30.9c-2.8-1.6-4.3-3.8-4.3-6.1s1.5-4.5,4.3-6.1l53.5-30.9
				c5.6-3.2,14.6-3.2,20.2,0l53.5,30.9c2.8,1.6,4.3,3.8,4.3,6.1s-1.5,4.5-4.3,6.1l-53.5,30.9C599.8,531.2,596.1,532,592.5,532z
				 M592.5,454.1c-3.5,0-7,0.8-9.6,2.3l-53.5,30.9c-2.5,1.4-3.8,3.3-3.8,5.3s1.4,3.9,3.8,5.3l53.5,30.9c5.3,3.1,13.9,3.1,19.2,0
				l53.5-30.9c2.5-1.4,3.8-3.3,3.8-5.3s-1.4-3.9-3.8-5.3l-53.5-30.9C599.4,454.9,595.9,454.1,592.5,454.1z"/>
			<g>
				<path class="st23" d="M662,480.7v-18.3l-3.3-1.9c-1,5.7-7.7,9.5-13.3,10.3L607,493.2l-16.7,6l-53.4-27.5l1.2-0.7
					c-4.6-2.1-7-7-9.5-11.5l-3.6,2.1l-2.1,0.6v18.6l0,0c0,2.4,1.6,4.8,4.7,6.6l53.5,30.9c6.3,3.6,16.5,3.6,22.7,0l53.5-30.9
					c3.1-1.8,4.7-4.1,4.7-6.4C662,480.9,662,480.8,662,480.7L662,480.7z"/>
				<g>
					<g>
						
							<linearGradient id="SVGID_20_" gradientUnits="userSpaceOnUse" x1="536.7155" y1="-711.7292" x2="647.1068" y2="-647.9949" gradientTransform="matrix(1 0 0 1 0 1140)">
							<stop  offset="0" style="stop-color:#BCBEFF"/>
							<stop  offset="0.2271" style="stop-color:#AAADF8"/>
							<stop  offset="0.6802" style="stop-color:#7C83E5"/>
							<stop  offset="1" style="stop-color:#5761D7"/>
						</linearGradient>
						<path class="st30" d="M662,464.5v-12.1l-3.3-1.9c-1,5.7-7.7,9.5-13.3,10.3L607,483.2l-16.7,6l-53.4-27.5l1.2-0.7
							c-4.6-2.1-7-7-9.5-11.5l-3.6,2.1l-2.1,0.6v12.4l0,0c0,2.4,1.6,4.8,4.7,6.6l53.5,30.9c6.3,3.6,16.5,3.6,22.7,0l53.5-30.9
							c3.1-1.8,4.7-4.1,4.7-6.4C662,464.6,662,464.5,662,464.5L662,464.5z"/>
						
							<linearGradient id="SVGID_21_" gradientUnits="userSpaceOnUse" x1="536.7155" y1="-711.7292" x2="647.1068" y2="-647.9949" gradientTransform="matrix(1 0 0 1 0 1140)">
							<stop  offset="0" style="stop-color:#42E8E0"/>
							<stop  offset="4.674554e-03" style="stop-color:#42E6DF"/>
							<stop  offset="0.1358" style="stop-color:#40B6CB"/>
							<stop  offset="0.2707" style="stop-color:#3E8DB9"/>
							<stop  offset="0.4074" style="stop-color:#3C6BAA"/>
							<stop  offset="0.5467" style="stop-color:#3B519F"/>
							<stop  offset="0.6893" style="stop-color:#3A3F97"/>
							<stop  offset="0.8375" style="stop-color:#393493"/>
							<stop  offset="1" style="stop-color:#393091"/>
						</linearGradient>
						<path class="st31" d="M662,464.5v-12.1l-3.3-1.9c-1,5.7-7.7,9.5-13.3,10.3L607,483.2l-16.7,6l-53.4-27.5l1.2-0.7
							c-4.6-2.1-7-7-9.5-11.5l-3.6,2.1l-2.1,0.6v12.4l0,0c0,2.4,1.6,4.8,4.7,6.6l53.5,30.9c6.3,3.6,16.5,3.6,22.7,0l53.5-30.9
							c3.1-1.8,4.7-4.1,4.7-6.4C662,464.6,662,464.5,662,464.5L662,464.5z"/>
						<path class="st19" d="M645.3,460.7L607,483.1l-14.6,5.3v16.4c4.1,0,8.2-0.9,11.4-2.7l53.5-30.9c3.1-1.8,4.7-4.1,4.7-6.4
							c0-0.1,0-0.2,0-0.3l0,0v-12.1l-3.1-1.7h-0.3C657.6,456.2,650.9,460,645.3,460.7z"/>
						<g>
							
								<linearGradient id="SVGID_22_" gradientUnits="userSpaceOnUse" x1="522.875" y1="-687.65" x2="662.025" y2="-687.65" gradientTransform="matrix(1 0 0 1 0 1140)">
								<stop  offset="0" style="stop-color:#B9F6FD"/>
								<stop  offset="0.1332" style="stop-color:#B0EAFB"/>
								<stop  offset="0.4515" style="stop-color:#9ED2F8"/>
								<stop  offset="0.7482" style="stop-color:#94C4F7"/>
								<stop  offset="1" style="stop-color:#90BFF6"/>
							</linearGradient>
							<path class="st32" d="M581.1,489.8l-53.5-30.9c-6.3-3.6-6.3-9.5,0-13.1l53.5-30.9c6.3-3.6,16.5-3.6,22.7,0l53.5,30.9
								c6.3,3.6,6.3,9.5,0,13.1l-53.5,30.9C597.5,493.4,587.4,493.4,581.1,489.8z"/>
						</g>
						<g>
							<path class="st27" d="M592.5,484.2c-3.3,0-6.6-0.7-9.1-2.2l-41.8-24.1c-2.5-1.5-3.9-3.4-3.9-5.5s1.4-4.1,3.9-5.5l41.8-24.1
								c5-2.9,13.2-2.9,18.2,0l41.8,24.1c2.5,1.5,3.9,3.4,3.9,5.5s-1.4,4.1-3.9,5.5L601.6,482C599,483.4,595.8,484.2,592.5,484.2z
								 M583.8,481.2c4.8,2.8,12.5,2.8,17.3,0l41.8-24.1c2.2-1.3,3.4-3,3.4-4.7s-1.2-3.4-3.4-4.7l-41.8-24.1
								c-4.8-2.8-12.5-2.8-17.3,0l-41.8,24c-2.2,1.3-3.4,3-3.4,4.7c0,1.8,1.2,3.4,3.4,4.7L583.8,481.2z"/>
						</g>
						<g>
							<path class="st12" d="M657.3,458.9l-53.5,30.9c-6.3,3.6-16.5,3.6-22.7,0l-53.5-30.9c-2.8-1.6-4.3-3.7-4.6-5.8
								c-0.4,2.6,1.2,5.3,4.6,7.3l53.5,30.9c6.3,3.6,16.5,3.6,22.7,0l53.5-30.9c3.5-2,5-4.7,4.6-7.3
								C661.7,455.2,660.1,457.3,657.3,458.9z"/>
						</g>
					</g>
				</g>
			</g>
		</g>
	</g>
</g>
<path id="Polygon_1" class="st1" d="M600.6,182.8c1.4-0.8,3.3-0.3,4.1,1.1c0.2,0.4,0.4,0.8,0.4,1.3l1.3,18.1
	c0.1,1.6-1.1,3.1-2.8,3.2c-0.6,0-1.1-0.1-1.6-0.3l-16.9-9c-1.5-0.8-2-2.6-1.2-4.1c0.3-0.5,0.7-0.9,1.2-1.2L600.6,182.8z"/>
<path id="Polygon_2" class="st1" d="M224.7,766.3c2.4-1.3,5.5-0.5,6.8,1.9c0.4,0.6,0.6,1.3,0.6,2l1.7,19.9c0.2,2.8-1.8,5.2-4.6,5.4
	c-1,0.1-1.9-0.1-2.8-0.6l-19.1-10.2c-2.4-1.3-3.4-4.3-2.1-6.8c0.4-0.8,1.1-1.5,2-2L224.7,766.3z"/>
<path id="Polygon_3" class="st1" d="M566.1,677.6c2.4-1.4,5.5-0.5,6.8,1.8c0.4,0.7,0.6,1.4,0.7,2.1l1.8,24.3
	c0.2,2.8-1.9,5.2-4.6,5.3c-0.9,0.1-1.9-0.1-2.7-0.6l-22.9-12.2c-2.4-1.3-3.4-4.3-2.1-6.8c0.4-0.8,1.1-1.5,1.9-2L566.1,677.6z"/>
<path id="Polygon_4" class="st1" d="M114.6,148.8c1.4-0.8,3.3-0.3,4.1,1.1c0.2,0.4,0.4,0.8,0.4,1.3l1.3,18.1
	c0.1,1.6-1.1,3.1-2.8,3.2c-0.6,0-1.1-0.1-1.6-0.3l-16.9-9c-1.5-0.8-2-2.6-1.2-4.1c0.3-0.5,0.7-0.9,1.2-1.2L114.6,148.8z"/>
<path id="Polygon_5" class="st33" d="M418.6,200.5c2.9-1.7,6.5-0.7,8.2,2.2c0.5,0.8,0.7,1.7,0.8,2.6l1.9,26.7
	c0.2,3.3-2.3,6.2-5.6,6.4c-1.1,0.1-2.2-0.2-3.2-0.7l-25-13.3c-2.9-1.6-4-5.2-2.5-8.1c0.5-1,1.3-1.8,2.3-2.4L418.6,200.5z"/>
</svg>
